# xmcd CD database file
#
# Track frame offsets:
#	150
#	16206
#	33986
#	52661
#	68765
#	94012
#	115706
#	132218
#	152162
#	167190
#	185369
#
# Disc length: 2687 seconds
#
# Revision: 0
# Processed by: cddbd v1.5.2PL0 Copyright (c) Steve Scherf et al.
# Submitted via: CDex 1.51
#
DISCID=800a7d0b
DTITLE=Ann-Marita - Intuition
DYEAR=2007
DGENRE=Country
TTITLE0=A Woman's Intuition
TTITLE1=What The Hell (Goes On In There)
TTITLE2=Under The Iowa Sky
TTITLE3=Three Magic Words
TTITLE4=Company Town
TTITLE5=State Line
TTITLE6=Wish I Was More Like That
TTITLE7=Gettin' On That Bus
TTITLE8=Two_Faced
TTITLE9=Mrs You
TTITLE10=Done Doin' Time
EXTD=YEAR: 2007
EXTT0=
EXTT1=
EXTT2=
EXTT3=
EXTT4=
EXTT5=
EXTT6=
EXTT7=
EXTT8=
EXTT9=
EXTT10=
PLAYORDER=
